<svg id="SvgjsSvg1000" xmlns="http://www.w3.org/2000/svg" version="1.1" xmlns:xlink="http://www.w3.org/1999/xlink" xmlns:svgjs="http://svgjs.com/svgjs" width="831" height="610.59375"><defs id="SvgjsDefs1001"><marker id="SvgjsMarker1022" markerWidth="14" markerHeight="10" refX="10" refY="5" viewBox="0 0 14 10" orient="auto" markerUnits="userSpaceOnUse" stroke-dasharray="0,0"><path id="SvgjsPath1023" d="M0 0L14 5L0 10L0 0 " fill="#323232" stroke="#323232" stroke-width="1"></path></marker><marker id="SvgjsMarker1026" markerWidth="14" markerHeight="10" refX="10" refY="5" viewBox="0 0 14 10" orient="auto" markerUnits="userSpaceOnUse" stroke-dasharray="0,0"><path id="SvgjsPath1027" d="M0 0L14 5L0 10L0 0 " fill="#323232" stroke="#323232" stroke-width="1"></path></marker><marker id="SvgjsMarker1036" markerWidth="14" markerHeight="10" refX="10" refY="5" viewBox="0 0 14 10" orient="auto" markerUnits="userSpaceOnUse" stroke-dasharray="0,0"><path id="SvgjsPath1037" d="M0 0L14 5L0 10L0 0 " fill="#323232" stroke="#323232" stroke-width="1"></path></marker><marker id="SvgjsMarker1048" markerWidth="14" markerHeight="10" refX="10" refY="5" viewBox="0 0 14 10" orient="auto" markerUnits="userSpaceOnUse" stroke-dasharray="0,0"><path id="SvgjsPath1049" d="M0 0L14 5L0 10L0 0 " fill="#323232" stroke="#323232" stroke-width="1"></path></marker><marker id="SvgjsMarker1060" markerWidth="14" markerHeight="10" refX="10" refY="5" viewBox="0 0 14 10" orient="auto" markerUnits="userSpaceOnUse" stroke-dasharray="0,0"><path id="SvgjsPath1061" d="M0 0L14 5L0 10L0 0 " fill="#323232" stroke="#323232" stroke-width="1"></path></marker><marker id="SvgjsMarker1064" markerWidth="14" markerHeight="10" refX="10" refY="5" viewBox="0 0 14 10" orient="auto" markerUnits="userSpaceOnUse" stroke-dasharray="0,0"><path id="SvgjsPath1065" d="M0 0L14 5L0 10L0 0 " fill="#323232" stroke="#323232" stroke-width="1"></path></marker><marker id="SvgjsMarker1074" markerWidth="14" markerHeight="10" refX="10" refY="5" viewBox="0 0 14 10" orient="auto" markerUnits="userSpaceOnUse" stroke-dasharray="0,0"><path id="SvgjsPath1075" d="M0 0L14 5L0 10L0 0 " fill="#323232" stroke="#323232" stroke-width="1"></path></marker><marker id="SvgjsMarker1086" markerWidth="14" markerHeight="10" refX="10" refY="5" viewBox="0 0 14 10" orient="auto" markerUnits="userSpaceOnUse" stroke-dasharray="0,0"><path id="SvgjsPath1087" d="M0 0L14 5L0 10L0 0 " fill="#388e3c" stroke="#388e3c" stroke-width="1"></path></marker><marker id="SvgjsMarker1090" markerWidth="14" markerHeight="10" refX="10" refY="5" viewBox="0 0 14 10" orient="auto" markerUnits="userSpaceOnUse" stroke-dasharray="0,0"><path id="SvgjsPath1091" d="M0 0L14 5L0 10L0 0 " fill="#388e3c" stroke="#388e3c" stroke-width="1"></path></marker><marker id="SvgjsMarker1094" markerWidth="14" markerHeight="10" refX="10" refY="5" viewBox="0 0 14 10" orient="auto" markerUnits="userSpaceOnUse" stroke-dasharray="0,0"><path id="SvgjsPath1095" d="M0 0L14 5L0 10L0 0 " fill="#388e3c" stroke="#388e3c" stroke-width="1"></path></marker><marker id="SvgjsMarker1098" markerWidth="14" markerHeight="10" refX="10" refY="5" viewBox="0 0 14 10" orient="auto" markerUnits="userSpaceOnUse" stroke-dasharray="0,0"><path id="SvgjsPath1099" d="M0 0L14 5L0 10L0 0 " fill="#388e3c" stroke="#388e3c" stroke-width="1"></path></marker><marker id="SvgjsMarker1102" markerWidth="14" markerHeight="10" refX="10" refY="5" viewBox="0 0 14 10" orient="auto" markerUnits="userSpaceOnUse" stroke-dasharray="0,0"><path id="SvgjsPath1103" d="M0 0L14 5L0 10L0 0 " fill="#388e3c" stroke="#388e3c" stroke-width="1"></path></marker><marker id="SvgjsMarker1106" markerWidth="14" markerHeight="10" refX="10" refY="5" viewBox="0 0 14 10" orient="auto" markerUnits="userSpaceOnUse" stroke-dasharray="0,0"><path id="SvgjsPath1107" d="M0 0L14 5L0 10L0 0 " fill="#323232" stroke="#323232" stroke-width="1"></path></marker><marker id="SvgjsMarker1116" markerWidth="14" markerHeight="10" refX="10" refY="5" viewBox="0 0 14 10" orient="auto" markerUnits="userSpaceOnUse" stroke-dasharray="0,0"><path id="SvgjsPath1117" d="M0 0L14 5L0 10L0 0 " fill="#323232" stroke="#323232" stroke-width="1"></path></marker><marker id="SvgjsMarker1120" markerWidth="14" markerHeight="10" refX="10" refY="5" viewBox="0 0 14 10" orient="auto" markerUnits="userSpaceOnUse" stroke-dasharray="0,0"><path id="SvgjsPath1121" d="M0 0L14 5L0 10L0 0 " fill="#323232" stroke="#323232" stroke-width="1"></path></marker></defs><g id="SvgjsG1007" transform="translate(25,133)"><path id="SvgjsPath1008" d="M0 35L45 0L90 35L45 70Z " stroke="rgba(50,50,50,1)" stroke-width="2" fill-opacity="1" fill="#ffffff"></path><g id="SvgjsG1009"><text id="SvgjsText1010" font-family="微软雅黑" text-anchor="middle" font-size="13px" width="70px" fill="#323232" font-weight="400" align="middle" lineHeight="125%" font-style="" opacity="1" y="24.725" transform="rotate(0)"><tspan id="SvgjsTspan1011" dy="16" x="45"><tspan id="SvgjsTspan1012" style="text-decoration:;">用户们</tspan></tspan></text></g></g><g id="SvgjsG1013" transform="translate(179,133)"><path id="SvgjsPath1014" d="M0 0L100 0L100 70L0 70Z " stroke="rgba(50,50,50,1)" stroke-width="2" fill-opacity="1" fill="#ffffff"></path><g id="SvgjsG1015"><text id="SvgjsText1016" font-family="微软雅黑" text-anchor="middle" font-size="13px" width="80px" fill="#323232" font-weight="400" align="middle" lineHeight="125%" font-style="" opacity="1" y="24.375" transform="rotate(0)"><tspan id="SvgjsTspan1017" dy="16" x="50"><tspan id="SvgjsTspan1018" style="text-decoration:;">po</tspan><tspan id="SvgjsTspan1019" style="text-decoration:;font-size: inherit;">s-gate</tspan></tspan></text></g></g><g id="SvgjsG1020"><path id="SvgjsPath1021" d="M112 169L145 169L145 169L175.39999999999998 169 " stroke="#323232" stroke-width="2" fill="none" marker-end="url(#SvgjsMarker1022)"></path></g><g id="SvgjsG1024"><path id="SvgjsPath1025" d="M280 168L347 168L347 168L411.4 168 " stroke="#323232" stroke-width="2" fill="none" marker-end="url(#SvgjsMarker1026)"></path></g><g id="SvgjsG1028" transform="translate(415,133)"><path id="SvgjsPath1029" d="M0 0L100 0L100 70L0 70Z " stroke="rgba(50,50,50,1)" stroke-width="2" fill-opacity="1" fill="#ffffff"></path><g id="SvgjsG1030"><text id="SvgjsText1031" font-family="微软雅黑" text-anchor="middle" font-size="13px" width="80px" fill="#323232" font-weight="400" align="middle" lineHeight="125%" font-style="" opacity="1" y="24.375" transform="rotate(0)"><tspan id="SvgjsTspan1032" dy="16" x="50"><tspan id="SvgjsTspan1033" style="text-decoration:;">cart service</tspan></tspan></text></g></g><g id="SvgjsG1034"><path id="SvgjsPath1035" d="M280 181L311 181L311 267L411.4 267 " stroke="#323232" stroke-width="2" fill="none" marker-end="url(#SvgjsMarker1036)"></path></g><g id="SvgjsG1038" transform="translate(415,232)"><path id="SvgjsPath1039" d="M0 0L100 0L100 70L0 70Z " stroke="rgba(50,50,50,1)" stroke-width="2" fill-opacity="1" fill="#ffffff"></path><g id="SvgjsG1040"><text id="SvgjsText1041" font-family="微软雅黑" text-anchor="middle" font-size="13px" width="80px" fill="#323232" font-weight="400" align="middle" lineHeight="125%" font-style="" opacity="1" y="16.375" transform="rotate(0)"><tspan id="SvgjsTspan1042" dy="16" x="50"><tspan id="SvgjsTspan1043" style="text-decoration:;">product </tspan></tspan><tspan id="SvgjsTspan1044" dy="16" x="50"><tspan id="SvgjsTspan1045" style="text-decoration:;">service</tspan></tspan></text></g></g><g id="SvgjsG1046"><path id="SvgjsPath1047" d="M278 154L309.5 154L309.5 61L702.4 61 " stroke="#323232" stroke-width="2" fill="none" marker-end="url(#SvgjsMarker1048)"></path></g><g id="SvgjsG1050" transform="translate(706,25)"><path id="SvgjsPath1051" d="M0 0L100 0L100 70L0 70Z " stroke="rgba(50,50,50,1)" stroke-width="2" fill-opacity="1" fill="#ffffff"></path><g id="SvgjsG1052"><text id="SvgjsText1053" font-family="微软雅黑" text-anchor="middle" font-size="13px" width="80px" fill="#323232" font-weight="400" align="middle" lineHeight="125%" font-style="" opacity="1" y="16.375" transform="rotate(0)"><tspan id="SvgjsTspan1054" dy="16" x="50"><tspan id="SvgjsTspan1055" style="text-decoration:;">delivery </tspan></tspan><tspan id="SvgjsTspan1056" dy="16" x="50"><tspan id="SvgjsTspan1057" style="text-decoration:;">service</tspan></tspan></text></g></g><g id="SvgjsG1058"><path id="SvgjsPath1059" d="M465 204L465 217.5L465 217.5L465 228.39999999999998 " stroke="#323232" stroke-width="2" fill="none" marker-end="url(#SvgjsMarker1060)"></path></g><g id="SvgjsG1062"><path id="SvgjsPath1063" d="M516 168L545.5 168L545.5 168L572.4 168 " stroke="#323232" stroke-width="2" fill="none" marker-end="url(#SvgjsMarker1064)"></path></g><g id="SvgjsG1066" transform="translate(576,133)"><path id="SvgjsPath1067" d="M0 0L100 0L100 70L0 70L0 0ZM16.666666666666668 0L16.666666666666668 70M83.33333333333333 0L83.33333333333333 70 " stroke="rgba(50,50,50,1)" stroke-width="2" fill-opacity="1" fill="#ffffff"></path><g id="SvgjsG1068"><text id="SvgjsText1069" font-family="微软雅黑" text-anchor="middle" font-size="13px" width="67px" fill="#323232" font-weight="400" align="middle" lineHeight="125%" font-style="" opacity="1" y="24.375" transform="rotate(0)"><tspan id="SvgjsTspan1070" dy="16" x="50.16666666666667"><tspan id="SvgjsTspan1071" style="text-decoration:;">queue</tspan></tspan></text></g></g><g id="SvgjsG1072"><path id="SvgjsPath1073" d="M677 168L756 168L756 98.6 " stroke="#323232" stroke-width="2" fill="none" marker-end="url(#SvgjsMarker1074)"></path></g><g id="SvgjsG1076" transform="translate(420,432)"><path id="SvgjsPath1077" d="M10.799999999999999 49C-9 35 3.6 24.5 8.1 21C6.300000000000001 3.5 28.8 0 37.8 7C45 -3.5 67.5 0 67.5 10.5C85.5 7 92.7 21 85.5 38.5C91.8 52.5 85.5 70 64.8 63C60.300000000000004 72.10000000000001 42.3 72.10000000000001 37.8 63C28.8 70 10.799999999999999 66.5 10.799999999999999 49Z " stroke="rgba(33,33,33,1)" stroke-width="2" fill-opacity="1" fill="#ffffff"></path><g id="SvgjsG1078"><text id="SvgjsText1079" font-family="微软雅黑" text-anchor="middle" font-size="13px" width="70px" fill="#323232" font-weight="400" align="middle" lineHeight="125%" font-style="" opacity="1" y="16.375" transform="rotate(0)"><tspan id="SvgjsTspan1080" dy="16" x="45"><tspan id="SvgjsTspan1081" style="text-decoration:;">discovery </tspan></tspan><tspan id="SvgjsTspan1082" dy="16" x="45"><tspan id="SvgjsTspan1083" style="text-decoration:;">service</tspan></tspan></text></g></g><g id="SvgjsG1084"><path id="SvgjsPath1085" d="M427.3363866245496 452.48931147230496C325.41851518112674 393.6613034719002 270 320.6773930561997 270.06890996665504 205.59934041408917 " stroke-dasharray="3,3" stroke="#388e3c" stroke-width="2" fill="none" marker-end="url(#SvgjsMarker1086)"></path></g><g id="SvgjsG1088"><path id="SvgjsPath1089" d="M507.4656229557012 488.4644049744945C675.2427130340313 585.3774627724506 794 289.7549255449012 793.9468114934909 98.59960705949626 " stroke-dasharray="3,3" stroke="#388e3c" stroke-width="2" fill="none" marker-end="url(#SvgjsMarker1090)"></path></g><g id="SvgjsG1092"><path id="SvgjsPath1093" d="M506.81404154644054 447.72504137405167C608.4822549363589 410.75838102621265 626 312.1795898647728 625.9730479355726 206.59989910778387 " stroke-dasharray="3,3" stroke="#388e3c" stroke-width="2" fill="none" marker-end="url(#SvgjsMarker1094)"></path></g><g id="SvgjsG1096"><path id="SvgjsPath1097" d="M441.92614518685855 435.91556742615546C432.53650221798364 383.00111889847585 465 356.7393412112273 464.8177195622626 305.5953822942795 " stroke-dasharray="3,3" stroke="#388e3c" stroke-width="2" fill="none" marker-end="url(#SvgjsMarker1098)"></path></g><g id="SvgjsG1100"><path id="SvgjsPath1101" d="M490.9874035508939 441.87006754463516C517.2074266732434 343.9246029273886 617.394017751895 188 518.5894200696544 188.27579623558483 " stroke-dasharray="3,3" stroke="#388e3c" stroke-width="2" fill="none" marker-end="url(#SvgjsMarker1102)"></path></g><g id="SvgjsG1104"><path id="SvgjsPath1105" d="M229 204L229 467L416.4 467 " stroke="#323232" stroke-width="2" fill="none" marker-end="url(#SvgjsMarker1106)"></path></g><g id="SvgjsG1108" transform="translate(92,250)"><path id="SvgjsPath1109" d="M0 0L114 0L114 52L0 52L0 0ZM19 0L19 52M95 0L95 52 " stroke="rgba(50,50,50,1)" stroke-width="2" fill-opacity="1" fill="#ffffff"></path><g id="SvgjsG1110"><text id="SvgjsText1111" font-family="微软雅黑" text-anchor="middle" font-size="13px" width="76px" fill="#323232" font-weight="400" align="middle" lineHeight="125%" font-style="" opacity="1" y="15.375" transform="rotate(0)"><tspan id="SvgjsTspan1112" dy="16" x="57"><tspan id="SvgjsTspan1113" style="text-decoration:;">integration</tspan></tspan></text></g></g><g id="SvgjsG1114"><path id="SvgjsPath1115" d="M181 204L181 226.5L149 226.5L149 246.39999999999998 " stroke="#323232" stroke-width="2" fill="none" marker-end="url(#SvgjsMarker1116)"></path></g><g id="SvgjsG1118"><path id="SvgjsPath1119" d="M207 276L216 276L216 206.60000000000002 " stroke="#323232" stroke-width="2" fill="none" marker-end="url(#SvgjsMarker1120)"></path></g></svg>