<svg id="SvgjsSvg1000" xmlns="http://www.w3.org/2000/svg" version="1.1" xmlns:xlink="http://www.w3.org/1999/xlink" xmlns:svgjs="http://svgjs.com/svgjs" width="889" height="617.59375"><defs id="SvgjsDefs1001"><marker id="SvgjsMarker1036" markerWidth="14" markerHeight="10" refX="10" refY="5" viewBox="0 0 14 10" orient="auto" markerUnits="userSpaceOnUse" stroke-dasharray="0,0"><path id="SvgjsPath1037" d="M0 0L14 5L0 10L0 0 " fill="#323232" stroke="#323232" stroke-width="1"></path></marker><marker id="SvgjsMarker1040" markerWidth="14" markerHeight="10" refX="10" refY="5" viewBox="0 0 14 10" orient="auto" markerUnits="userSpaceOnUse" stroke-dasharray="0,0"><path id="SvgjsPath1041" d="M0 0L14 5L0 10L0 0 " fill="#323232" stroke="#323232" stroke-width="1"></path></marker><marker id="SvgjsMarker1050" markerWidth="14" markerHeight="10" refX="10" refY="5" viewBox="0 0 14 10" orient="auto" markerUnits="userSpaceOnUse" stroke-dasharray="0,0"><path id="SvgjsPath1051" d="M0 0L14 5L0 10L0 0 " fill="#323232" stroke="#323232" stroke-width="1"></path></marker><marker id="SvgjsMarker1062" markerWidth="14" markerHeight="10" refX="10" refY="5" viewBox="0 0 14 10" orient="auto" markerUnits="userSpaceOnUse" stroke-dasharray="0,0"><path id="SvgjsPath1063" d="M0 0L14 5L0 10L0 0 " fill="#323232" stroke="#323232" stroke-width="1"></path></marker><marker id="SvgjsMarker1074" markerWidth="14" markerHeight="10" refX="10" refY="5" viewBox="0 0 14 10" orient="auto" markerUnits="userSpaceOnUse" stroke-dasharray="0,0"><path id="SvgjsPath1075" d="M0 0L14 5L0 10L0 0 " fill="#323232" stroke="#323232" stroke-width="1"></path></marker><marker id="SvgjsMarker1078" markerWidth="14" markerHeight="10" refX="10" refY="5" viewBox="0 0 14 10" orient="auto" markerUnits="userSpaceOnUse" stroke-dasharray="0,0"><path id="SvgjsPath1079" d="M0 0L14 5L0 10L0 0 " fill="#323232" stroke="#323232" stroke-width="1"></path></marker><marker id="SvgjsMarker1092" markerWidth="14" markerHeight="10" refX="10" refY="5" viewBox="0 0 14 10" orient="auto" markerUnits="userSpaceOnUse" stroke-dasharray="0,0"><path id="SvgjsPath1093" d="M0 0L14 5L0 10L0 0 " fill="#323232" stroke="#323232" stroke-width="1"></path></marker><marker id="SvgjsMarker1104" markerWidth="14" markerHeight="10" refX="10" refY="5" viewBox="0 0 14 10" orient="auto" markerUnits="userSpaceOnUse" stroke-dasharray="0,0"><path id="SvgjsPath1105" d="M0 0L14 5L0 10L0 0 " fill="#388e3c" stroke="#388e3c" stroke-width="1"></path></marker><marker id="SvgjsMarker1108" markerWidth="14" markerHeight="10" refX="10" refY="5" viewBox="0 0 14 10" orient="auto" markerUnits="userSpaceOnUse" stroke-dasharray="0,0"><path id="SvgjsPath1109" d="M0 0L14 5L0 10L0 0 " fill="#388e3c" stroke="#388e3c" stroke-width="1"></path></marker><marker id="SvgjsMarker1112" markerWidth="14" markerHeight="10" refX="10" refY="5" viewBox="0 0 14 10" orient="auto" markerUnits="userSpaceOnUse" stroke-dasharray="0,0"><path id="SvgjsPath1113" d="M0 0L14 5L0 10L0 0 " fill="#388e3c" stroke="#388e3c" stroke-width="1"></path></marker><marker id="SvgjsMarker1116" markerWidth="14" markerHeight="10" refX="10" refY="5" viewBox="0 0 14 10" orient="auto" markerUnits="userSpaceOnUse" stroke-dasharray="0,0"><path id="SvgjsPath1117" d="M0 0L14 5L0 10L0 0 " fill="#388e3c" stroke="#388e3c" stroke-width="1"></path></marker><marker id="SvgjsMarker1120" markerWidth="14" markerHeight="10" refX="10" refY="5" viewBox="0 0 14 10" orient="auto" markerUnits="userSpaceOnUse" stroke-dasharray="0,0"><path id="SvgjsPath1121" d="M0 0L14 5L0 10L0 0 " fill="#388e3c" stroke="#388e3c" stroke-width="1"></path></marker><marker id="SvgjsMarker1124" markerWidth="14" markerHeight="10" refX="10" refY="5" viewBox="0 0 14 10" orient="auto" markerUnits="userSpaceOnUse" stroke-dasharray="0,0"><path id="SvgjsPath1125" d="M0 0L14 5L0 10L0 0 " fill="#323232" stroke="#323232" stroke-width="1"></path></marker><marker id="SvgjsMarker1134" markerWidth="14" markerHeight="10" refX="10" refY="5" viewBox="0 0 14 10" orient="auto" markerUnits="userSpaceOnUse" stroke-dasharray="0,0"><path id="SvgjsPath1135" d="M0 0L14 5L0 10L0 0 " fill="#323232" stroke="#323232" stroke-width="1"></path></marker><marker id="SvgjsMarker1138" markerWidth="14" markerHeight="10" refX="10" refY="5" viewBox="0 0 14 10" orient="auto" markerUnits="userSpaceOnUse" stroke-dasharray="0,0"><path id="SvgjsPath1139" d="M0 0L14 5L0 10L0 0 " fill="#323232" stroke="#323232" stroke-width="1"></path></marker></defs><g id="SvgjsG1007" transform="translate(420,237)"><path id="SvgjsPath1008" d="M0 0L100 0L100 70L0 70Z " stroke-dasharray="10,6" stroke="rgba(50,50,50,1)" stroke-width="2" fill-opacity="1" fill="#ffffff"></path><g id="SvgjsG1009"><text id="SvgjsText1010" font-family="微软雅黑" text-anchor="middle" font-size="13px" width="80px" fill="#323232" font-weight="400" align="middle" lineHeight="125%" font-style="" opacity="1" y="16.375" transform="rotate(0)"><tspan id="SvgjsTspan1011" dy="16" x="50"><tspan id="SvgjsTspan1012" style="text-decoration:;">product </tspan></tspan><tspan id="SvgjsTspan1013" dy="16" x="50"><tspan id="SvgjsTspan1014" style="text-decoration:;">service</tspan></tspan></text></g></g><g id="SvgjsG1015" transform="translate(420,138)"><path id="SvgjsPath1016" d="M0 0L100 0L100 70L0 70Z " stroke-dasharray="10,6" stroke="rgba(50,50,50,1)" stroke-width="2" fill-opacity="1" fill="#ffffff"></path><g id="SvgjsG1017"><text id="SvgjsText1018" font-family="微软雅黑" text-anchor="middle" font-size="13px" width="80px" fill="#323232" font-weight="400" align="middle" lineHeight="125%" font-style="" opacity="1" y="24.375" transform="rotate(0)"><tspan id="SvgjsTspan1019" dy="16" x="50"><tspan id="SvgjsTspan1020" style="text-decoration:;">cart service</tspan></tspan></text></g></g><g id="SvgjsG1021" transform="translate(25,133)"><path id="SvgjsPath1022" d="M0 35L45 0L90 35L45 70Z " stroke="rgba(50,50,50,1)" stroke-width="2" fill-opacity="1" fill="#ffffff"></path><g id="SvgjsG1023"><text id="SvgjsText1024" font-family="微软雅黑" text-anchor="middle" font-size="13px" width="70px" fill="#323232" font-weight="400" align="middle" lineHeight="125%" font-style="" opacity="1" y="24.725" transform="rotate(0)"><tspan id="SvgjsTspan1025" dy="16" x="45"><tspan id="SvgjsTspan1026" style="text-decoration:;">用户们</tspan></tspan></text></g></g><g id="SvgjsG1027" transform="translate(179,133)"><path id="SvgjsPath1028" d="M0 0L100 0L100 70L0 70Z " stroke-dasharray="10,6" stroke="rgba(50,50,50,1)" stroke-width="2" fill-opacity="1" fill="#ffffff"></path><g id="SvgjsG1029"><text id="SvgjsText1030" font-family="微软雅黑" text-anchor="middle" font-size="13px" width="80px" fill="#323232" font-weight="400" align="middle" lineHeight="125%" font-style="" opacity="1" y="24.375" transform="rotate(0)"><tspan id="SvgjsTspan1031" dy="16" x="50"><tspan id="SvgjsTspan1032" style="text-decoration:;">po</tspan><tspan id="SvgjsTspan1033" style="text-decoration:;font-size: inherit;">s-gate</tspan></tspan></text></g></g><g id="SvgjsG1034"><path id="SvgjsPath1035" d="M112 169L145 169L145 169L175.39999999999998 169 " stroke="#323232" stroke-width="2" fill="none" marker-end="url(#SvgjsMarker1036)"></path></g><g id="SvgjsG1038"><path id="SvgjsPath1039" d="M280 168L347 168L347 168L411.4 168 " stroke="#323232" stroke-width="2" fill="none" marker-end="url(#SvgjsMarker1040)"></path></g><g id="SvgjsG1042" transform="translate(415,133)"><path id="SvgjsPath1043" d="M0 0L100 0L100 70L0 70Z " stroke-dasharray="10,6" stroke="rgba(50,50,50,1)" stroke-width="2" fill-opacity="1" fill="#ffffff"></path><g id="SvgjsG1044"><text id="SvgjsText1045" font-family="微软雅黑" text-anchor="middle" font-size="13px" width="80px" fill="#323232" font-weight="400" align="middle" lineHeight="125%" font-style="" opacity="1" y="24.375" transform="rotate(0)"><tspan id="SvgjsTspan1046" dy="16" x="50"><tspan id="SvgjsTspan1047" style="text-decoration:;">cart service</tspan></tspan></text></g></g><g id="SvgjsG1048"><path id="SvgjsPath1049" d="M280 181L311 181L311 267L411.4 267 " stroke="#323232" stroke-width="2" fill="none" marker-end="url(#SvgjsMarker1050)"></path></g><g id="SvgjsG1052" transform="translate(415,232)"><path id="SvgjsPath1053" d="M0 0L100 0L100 70L0 70Z " stroke-dasharray="10,6" stroke="rgba(50,50,50,1)" stroke-width="2" fill-opacity="1" fill="#ffffff"></path><g id="SvgjsG1054"><text id="SvgjsText1055" font-family="微软雅黑" text-anchor="middle" font-size="13px" width="80px" fill="#323232" font-weight="400" align="middle" lineHeight="125%" font-style="" opacity="1" y="16.375" transform="rotate(0)"><tspan id="SvgjsTspan1056" dy="16" x="50"><tspan id="SvgjsTspan1057" style="text-decoration:;">product </tspan></tspan><tspan id="SvgjsTspan1058" dy="16" x="50"><tspan id="SvgjsTspan1059" style="text-decoration:;">service</tspan></tspan></text></g></g><g id="SvgjsG1060"><path id="SvgjsPath1061" d="M278 154L311.5 154L311.5 61L760.4 61 " stroke="#323232" stroke-width="2" fill="none" marker-end="url(#SvgjsMarker1062)"></path></g><g id="SvgjsG1064" transform="translate(764,25)"><path id="SvgjsPath1065" d="M0 0L100 0L100 70L0 70Z " stroke-dasharray="10,6" stroke="rgba(50,50,50,1)" stroke-width="2" fill-opacity="1" fill="#ffffff"></path><g id="SvgjsG1066"><text id="SvgjsText1067" font-family="微软雅黑" text-anchor="middle" font-size="13px" width="80px" fill="#323232" font-weight="400" align="middle" lineHeight="125%" font-style="" opacity="1" y="16.375" transform="rotate(0)"><tspan id="SvgjsTspan1068" dy="16" x="50"><tspan id="SvgjsTspan1069" style="text-decoration:;">delivery </tspan></tspan><tspan id="SvgjsTspan1070" dy="16" x="50"><tspan id="SvgjsTspan1071" style="text-decoration:;">service</tspan></tspan></text></g></g><g id="SvgjsG1072"><path id="SvgjsPath1073" d="M465 204L465 217.5L465 217.5L465 228.39999999999998 " stroke="#323232" stroke-width="2" fill="none" marker-end="url(#SvgjsMarker1074)"></path></g><g id="SvgjsG1076"><path id="SvgjsPath1077" d="M516 168L574.5 168L574.5 168L630.4 168 " stroke="#323232" stroke-width="2" fill="none" marker-end="url(#SvgjsMarker1078)"></path></g><g id="SvgjsG1080" transform="translate(634,133)"><path id="SvgjsPath1081" d="M0 0L100 0L100 70L0 70L0 0ZM16.666666666666668 0L16.666666666666668 70M83.33333333333333 0L83.33333333333333 70 " stroke="rgba(50,50,50,1)" stroke-width="2" fill-opacity="1" fill="#ffffff"></path><g id="SvgjsG1082"><text id="SvgjsText1083" font-family="微软雅黑" text-anchor="middle" font-size="13px" width="67px" fill="#323232" font-weight="400" align="middle" lineHeight="125%" font-style="" opacity="1" y="8.375" transform="rotate(0)"><tspan id="SvgjsTspan1084" dy="16" x="50.16666666666667"><tspan id="SvgjsTspan1085" style="text-decoration:;">queue</tspan></tspan><tspan id="SvgjsTspan1086" dy="16" x="50.16666666666667"><tspan id="SvgjsTspan1087" style="text-decoration:;"> </tspan></tspan><tspan id="SvgjsTspan1088" dy="16" x="50.16666666666667"><tspan id="SvgjsTspan1089" style="text-decoration:;">rabbitmq</tspan></tspan></text></g></g><g id="SvgjsG1090"><path id="SvgjsPath1091" d="M735 168L814 168L814 98.6 " stroke="#323232" stroke-width="2" fill="none" marker-end="url(#SvgjsMarker1092)"></path></g><g id="SvgjsG1094" transform="translate(420,432)"><path id="SvgjsPath1095" d="M10.799999999999999 49C-9 35 3.6 24.5 8.1 21C6.300000000000001 3.5 28.8 0 37.8 7C45 -3.5 67.5 0 67.5 10.5C85.5 7 92.7 21 85.5 38.5C91.8 52.5 85.5 70 64.8 63C60.300000000000004 72.10000000000001 42.3 72.10000000000001 37.8 63C28.8 70 10.799999999999999 66.5 10.799999999999999 49Z " stroke="rgba(33,33,33,1)" stroke-width="2" fill-opacity="1" fill="#ffffff"></path><g id="SvgjsG1096"><text id="SvgjsText1097" font-family="微软雅黑" text-anchor="middle" font-size="13px" width="70px" fill="#323232" font-weight="400" align="middle" lineHeight="125%" font-style="" opacity="1" y="16.375" transform="rotate(0)"><tspan id="SvgjsTspan1098" dy="16" x="45"><tspan id="SvgjsTspan1099" style="text-decoration:;">discovery </tspan></tspan><tspan id="SvgjsTspan1100" dy="16" x="45"><tspan id="SvgjsTspan1101" style="text-decoration:;">service</tspan></tspan></text></g></g><g id="SvgjsG1102"><path id="SvgjsPath1103" d="M427.3363866245496 452.48931147230496C325.41851518112674 393.6613034719002 270 320.6773930561997 270.06890996665504 205.59934041408917 " stroke-dasharray="3,3" stroke="#388e3c" stroke-width="2" fill="none" marker-end="url(#SvgjsMarker1104)"></path></g><g id="SvgjsG1106"><path id="SvgjsPath1107" d="M507.4638296582501 488.4678088660954C687.8303163252413 592.6449189210829 852 304.28983784216564 851.9362161120608 98.59943490226442 " stroke-dasharray="3,3" stroke="#388e3c" stroke-width="2" fill="none" marker-end="url(#SvgjsMarker1108)"></path></g><g id="SvgjsG1110"><path id="SvgjsPath1111" d="M506.8202586765734 447.7407949852794C619.7710781351404 406.6495854019623 684 324.1929045903266 683.9237119140894 206.59919159367047 " stroke-dasharray="3,3" stroke="#388e3c" stroke-width="2" fill="none" marker-end="url(#SvgjsMarker1112)"></path></g><g id="SvgjsG1114"><path id="SvgjsPath1115" d="M441.92614518685855 435.91556742615546C432.53650221798364 383.00111889847585 465 356.7393412112273 464.8177195622626 305.5953822942795 " stroke-dasharray="3,3" stroke="#388e3c" stroke-width="2" fill="none" marker-end="url(#SvgjsMarker1116)"></path></g><g id="SvgjsG1118"><path id="SvgjsPath1119" d="M490.9874035508939 441.87006754463516C517.2074266732434 343.9246029273886 617.394017751895 188 518.5894200696544 188.27579623558483 " stroke-dasharray="3,3" stroke="#388e3c" stroke-width="2" fill="none" marker-end="url(#SvgjsMarker1120)"></path></g><g id="SvgjsG1122"><path id="SvgjsPath1123" d="M229 204L229 467L416.4 467 " stroke="#323232" stroke-width="2" fill="none" marker-end="url(#SvgjsMarker1124)"></path></g><g id="SvgjsG1126" transform="translate(92,250)"><path id="SvgjsPath1127" d="M0 0L114 0L114 52L0 52L0 0ZM19 0L19 52M95 0L95 52 " stroke="rgba(50,50,50,1)" stroke-width="2" fill-opacity="1" fill="#ffffff"></path><g id="SvgjsG1128"><text id="SvgjsText1129" font-family="微软雅黑" text-anchor="middle" font-size="13px" width="76px" fill="#323232" font-weight="400" align="middle" lineHeight="125%" font-style="" opacity="1" y="15.375" transform="rotate(0)"><tspan id="SvgjsTspan1130" dy="16" x="57"><tspan id="SvgjsTspan1131" style="text-decoration:;">integration</tspan></tspan></text></g></g><g id="SvgjsG1132"><path id="SvgjsPath1133" d="M181 204L181 226.5L149 226.5L149 246.39999999999998 " stroke="#323232" stroke-width="2" fill="none" marker-end="url(#SvgjsMarker1134)"></path></g><g id="SvgjsG1136"><path id="SvgjsPath1137" d="M207 276L216 276L216 206.60000000000002 " stroke="#323232" stroke-width="2" fill="none" marker-end="url(#SvgjsMarker1138)"></path></g></svg>